<svg width="154" height="38" viewBox="0 0 154 38" fill="none" xmlns="http://www.w3.org/2000/svg">
<g clip-path="url(#clip0_3640_1483)">
<path d="M64.1749 21.2137H61.119V17.23H64.0851C65.0738 17.23 65.8827 17.407 66.422 17.6726C66.8714 18.0267 67.141 18.4694 67.141 19.1776C67.141 20.594 66.1523 21.2137 64.1749 21.2137V21.2137ZM61.119 11.2987H63.366C64.4446 11.2987 65.2535 11.3872 65.7928 11.6528C66.2422 11.8299 66.5118 12.2725 66.5118 12.9807C66.5118 13.2463 66.422 13.6004 66.2422 13.866C66.0624 14.2201 65.7928 14.4857 65.4333 14.5742C64.9839 14.7512 64.4446 14.7512 63.7255 14.7512H61.119V11.2987ZM67.7702 15.8136C69.1184 15.1053 69.7476 13.9545 69.7476 12.5381C69.7476 12.0954 69.6577 11.7413 69.5678 11.2987C69.388 10.9446 69.2083 10.502 68.9386 10.2364C68.5791 9.88229 68.3095 9.61671 67.9499 9.35113C67.5005 9.17408 67.0511 8.99702 66.5118 8.9085C65.9726 8.81997 65.3434 8.73145 64.6243 8.73145H59.7708C59.0517 8.73145 58.6023 8.9085 58.2428 9.17408C57.9732 9.52818 57.7934 10.0593 57.7934 10.679V23.7809H64.3547C65.0737 23.7809 65.7928 23.6924 66.422 23.6039C66.9613 23.5154 67.5904 23.4268 68.0398 23.2498C68.7589 22.8957 69.388 22.3645 69.8374 21.7448C70.2869 21.0366 70.4666 20.2399 70.4666 19.4431C70.4666 17.6726 69.5678 16.4332 67.7702 15.8136V15.8136Z" fill="#0057C2"/>
<path d="M47.9965 12.2728H48.0864L50.0637 17.7614H46.0191L47.9965 12.2728ZM45.1203 20.2402H50.9625L52.3108 23.6927H55.7262L54.7375 21.391C54.7375 21.214 54.6477 21.1254 54.5578 20.9484L50.4233 10.4137C50.2435 10.0596 50.0637 9.70553 49.884 9.43995C49.7042 9.17437 49.4346 8.99732 49.1649 8.82027C48.8953 8.64321 48.4459 8.55469 48.0864 8.55469C47.6369 8.55469 47.2774 8.64321 46.9179 8.82027C46.6483 8.99732 46.3786 9.17437 46.1989 9.43995C46.0191 9.70553 45.8393 10.0596 45.7494 10.4137L41.525 20.9484C41.4352 21.1254 41.4352 21.214 41.3453 21.391L40.4465 23.6927H43.862L45.1203 20.2402Z" fill="#0057C2"/>
<path d="M78.9155 21.2137H75.7696V17.23H78.8256C79.8143 17.23 80.6232 17.407 81.0726 17.6726C81.6119 18.0267 81.7916 18.4694 81.7916 19.1776C81.7916 20.594 80.8928 21.2137 78.9155 21.2137ZM75.7696 11.2987H78.1065C79.1851 11.2987 79.994 11.3872 80.5333 11.6528C80.9827 11.8299 81.2524 12.2725 81.2524 12.9807C81.2524 13.2463 81.1625 13.6004 80.9827 13.866C80.803 14.2201 80.5333 14.4857 80.1738 14.5742C79.7244 14.7512 79.1851 14.7512 78.4661 14.7512H75.7696V11.2987ZM82.4208 15.8136C83.769 15.1053 84.4881 13.9545 84.4881 12.5381C84.4881 12.0954 84.3982 11.7413 84.2184 11.2987C84.1286 10.9446 83.8589 10.502 83.5893 10.2364C83.3196 9.88229 83.05 9.61671 82.6006 9.35113C82.2411 9.17408 81.7018 8.99702 81.1625 8.9085C80.6232 8.81997 79.994 8.73145 79.275 8.73145H74.4214C73.7922 8.73145 73.253 8.9085 72.9833 9.17408C72.6238 9.52818 72.444 10.0593 72.444 10.679V23.7809H79.0053C79.8143 23.7809 80.5333 23.6924 81.0726 23.6039C81.7018 23.5154 82.2411 23.4268 82.6905 23.2498C83.4994 22.8957 84.0387 22.3645 84.4881 21.7448C84.9375 21.0366 85.2071 20.2399 85.2071 19.4431C85.2071 17.6726 84.3083 16.4332 82.4208 15.8136V15.8136Z" fill="#0057C2"/>
<path d="M7.1905 18.9996C4.94347 15.5471 3.8649 11.4749 4.58395 7.31412C4.85359 5.8977 6.02204 4.83538 7.46014 4.5698C8.71847 4.39275 9.70716 4.30422 11.5048 4.48127C10.8756 5.54359 10.4262 6.60591 10.0667 7.66823C9.16788 7.5797 8.17919 7.75675 7.90954 7.84528C7.19049 10.5896 8.08931 15.193 10.9655 18.9996H7.1905Z" fill="#0057C2"/>
<path d="M10.6957 10.5904C11.5945 6.69525 13.7517 2.97714 17.257 0.586924C18.4255 -0.209813 20.0434 -0.209813 21.2118 0.675451C22.2904 1.38366 23.0094 2.00335 24.1779 3.33124C22.9195 3.68535 21.9309 4.12798 20.8523 4.57061C20.2231 3.95093 19.5041 3.41977 19.2344 3.24272C16.7178 4.65914 14.1112 8.5543 13.3922 13.3347L10.6957 10.5904Z" fill="#0057C2"/>
<path d="M19.2345 7.13751C22.65 5.01288 26.7845 3.86204 31.0089 4.65877C32.447 4.92435 33.5256 5.98667 33.7952 7.40309C33.975 8.73099 34.0649 9.61625 33.975 11.3868C32.8964 10.7671 31.7279 10.413 30.7393 9.97036C30.7393 9.0851 30.5595 8.19983 30.4696 7.84573C27.7732 7.13751 23.0994 8.11131 19.2345 10.9442V7.13751Z" fill="#0057C2"/>
<path d="M27.6833 10.5898C31.7279 11.5636 35.4131 13.5997 37.8399 17.0523C38.7387 18.2916 38.6488 19.7966 37.8399 20.9474C37.0309 22.0098 36.4916 22.718 35.0535 23.8688C34.7839 22.718 34.2446 21.6556 33.7952 20.6819C34.5143 20.0622 34.9637 19.2654 35.1434 18.9999C33.7053 16.6096 29.7506 13.9538 24.9869 13.3342L27.6833 10.5898Z" fill="#0057C2"/>
<path d="M31.2786 19C33.4358 22.4525 34.5143 26.5247 33.7953 30.6855C33.5256 32.1019 32.3572 33.1642 30.9191 33.3413C29.6608 33.6069 28.6721 33.6954 26.8745 33.5183C27.5036 32.456 27.953 31.3937 28.3125 30.3314C29.2114 30.3314 30.2 30.1543 30.4697 30.0658C31.1887 27.41 30.2899 22.8066 27.4137 19H31.2786Z" fill="#0057C2"/>
<path d="M27.6834 27.4103C26.7846 31.3055 24.6274 35.0236 21.1221 37.4138C19.9536 38.2106 18.3358 38.2106 17.1673 37.3253C16.0887 36.6171 15.3697 35.9974 14.2012 34.6695C15.4596 34.3154 16.4483 33.8728 17.5268 33.4301C18.156 34.0498 18.9649 34.581 19.2346 34.6695C21.6614 33.3416 24.2679 29.3579 24.9869 24.666L27.6834 27.4103Z" fill="#0057C2"/>
<path d="M19.2346 30.8635C15.7292 32.9882 11.5947 34.139 7.37029 33.3423C5.93219 33.0767 4.85362 31.9258 4.58398 30.5979C4.40422 29.2701 4.31434 28.3848 4.40422 26.6143C5.57267 27.2339 6.65124 27.5881 7.63993 28.0307C7.63993 28.9159 7.81969 29.8012 7.90958 30.0668C10.606 30.8635 15.2798 29.8897 19.2346 27.0569V30.8635Z" fill="#0057C2"/>
<path d="M10.6958 27.4114C6.65119 26.4376 2.96607 24.4015 0.539286 20.949C-0.179762 19.7096 -0.179762 18.1162 0.539286 16.9653C1.34821 15.9915 1.8875 15.2833 3.3256 14.0439C3.59524 15.2833 4.13452 16.3456 4.58393 17.3194C3.86488 17.9391 3.41548 18.7358 3.23572 19.0014C4.67381 21.3916 8.62857 24.0474 13.3923 24.6671L10.6958 27.4114Z" fill="#0057C2"/>
<path d="M41.1655 28.0298H41.8846L41.525 27.233L41.1655 28.0298ZM40.4465 28.8265L41.3453 26.8789H41.7048L42.6036 28.8265H42.2441L42.0643 28.3839H41.0756L40.8959 28.8265H40.4465Z" fill="#0057C2"/>
<path d="M42.8732 28.8272V28.6502L43.772 27.6764H42.8732V27.3223H44.2214V27.5878L43.3226 28.5616H44.2214V28.8272H42.8732Z" fill="#0057C2"/>
<path d="M45.5697 28.2075H44.7608C44.7608 28.2961 44.8506 28.3846 44.9405 28.4731C44.9405 28.5616 45.0304 28.6502 45.2102 28.6502C45.3001 28.6502 45.3899 28.5616 45.4798 28.4731C45.4798 28.4731 45.5697 28.2961 45.5697 28.2075ZM45.1203 27.3223C45.3899 27.3223 45.5697 27.4108 45.6596 27.4993C45.8393 27.6764 45.9292 27.8534 45.9292 28.119C45.9292 28.2961 45.8393 28.5616 45.7495 28.6502C45.5697 28.8272 45.3899 28.9157 45.2102 28.9157C44.9405 28.9157 44.7608 28.8272 44.581 28.6502C44.4911 28.4731 44.4012 28.2961 44.4012 28.119C44.4012 28.06 44.4012 28.0305 44.4012 28.0305H45.5697C45.5697 27.8534 45.4798 27.7649 45.3899 27.6764C45.3001 27.6764 45.2102 27.5878 45.1203 27.5878C44.9405 27.5878 44.8506 27.6764 44.6709 27.7649L44.4911 27.5878C44.6709 27.4108 44.8506 27.3223 45.1203 27.3223V27.3223Z" fill="#0057C2"/>
<path d="M46.2887 28.8272V27.3223H46.6482V27.6764C46.7381 27.4108 46.9179 27.3223 47.1875 27.3223V27.6764C47.0077 27.6764 46.828 27.7649 46.7381 27.8534C46.6482 27.942 46.6482 28.119 46.6482 28.2961V28.8272H46.2887Z" fill="#0057C2"/>
<path d="M47.9066 28.473C47.9964 28.5615 48.1762 28.5615 48.2661 28.5615C48.356 28.5615 48.5357 28.5615 48.5357 28.473C48.6256 28.3845 48.7155 28.296 48.7155 28.1189C48.7155 27.9419 48.6256 27.8533 48.5357 27.7648C48.4458 27.6763 48.356 27.5878 48.2661 27.5878C48.1762 27.5878 47.9964 27.6763 47.9066 27.7648C47.8167 27.8533 47.8167 27.9419 47.8167 28.1189C47.8167 28.296 47.8167 28.3845 47.9066 28.473ZM48.356 28.9156C48.1762 28.9156 47.9964 28.8271 47.8167 28.6501V28.8271H47.4572V26.791H47.8167V27.5878C47.9964 27.4107 48.1762 27.3222 48.356 27.3222C48.5357 27.3222 48.7155 27.4107 48.8054 27.4992C48.9851 27.6763 49.075 27.8533 49.075 28.1189C49.075 28.3845 48.9851 28.5615 48.8054 28.6501C48.7155 28.8271 48.5357 28.9156 48.356 28.9156V28.9156Z" fill="#0057C2"/>
<path d="M49.9738 28.6502C50.0637 28.6502 50.1535 28.6502 50.2434 28.5616C50.3333 28.4731 50.3333 28.3846 50.3333 28.2961V28.2075C50.2434 28.2075 50.1535 28.119 50.0636 28.119C49.8839 28.119 49.794 28.2075 49.794 28.2075C49.7341 28.2665 49.7041 28.3256 49.7041 28.3846C49.7041 28.4731 49.7041 28.5616 49.7041 28.5616C49.794 28.6502 49.8839 28.6502 49.9738 28.6502V28.6502ZM49.8839 28.9157C49.7041 28.9157 49.6142 28.8272 49.4345 28.7387C49.3446 28.6502 49.3446 28.5616 49.3446 28.4731V28.3846C49.3446 28.2961 49.3446 28.119 49.5244 28.0305C49.6142 27.942 49.794 27.942 49.9738 27.942C50.0637 27.942 50.2434 27.942 50.3333 28.0305V27.942C50.3333 27.7649 50.2434 27.6764 49.9738 27.6764C49.8839 27.6764 49.7041 27.6764 49.5244 27.7649L49.4345 27.4993C49.6142 27.4108 49.8839 27.3223 50.0636 27.3223C50.2434 27.3223 50.4232 27.4108 50.5131 27.4993C50.6928 27.5878 50.6928 27.7649 50.6928 27.942V28.8272H50.3333V28.6502C50.2434 28.8272 50.0636 28.9157 49.8839 28.9157V28.9157Z" fill="#0057C2"/>
<path d="M51.7715 28.4731L52.131 27.3223H52.4905L51.8613 28.9157C51.8613 29.0928 51.7715 29.1813 51.6816 29.2698C51.5917 29.2698 51.5018 29.3584 51.4119 29.3584C51.2322 29.3584 51.1423 29.2698 51.0524 29.2698L51.1423 29.0043C51.2322 29.0043 51.3221 29.0043 51.3221 29.0043C51.382 29.0043 51.4419 29.0043 51.5018 29.0043C51.5018 29.0043 51.5018 28.9157 51.5917 28.8272L50.9625 27.3223H51.3221L51.7715 28.4731Z" fill="#0057C2"/>
<path d="M53.3893 28.9157C53.2095 28.9157 53.0298 28.8272 52.85 28.6502C52.6702 28.5616 52.6702 28.2961 52.6702 28.119C52.6702 27.8534 52.6702 27.6764 52.85 27.5878C53.0298 27.4108 53.2095 27.3223 53.3893 27.3223C53.6589 27.3223 53.8387 27.4108 54.0184 27.5878L53.8387 27.8534C53.6589 27.6764 53.569 27.5878 53.3893 27.5878C53.2994 27.5878 53.2095 27.6764 53.1196 27.7649C53.0297 27.8534 52.9399 27.942 52.9399 28.119C52.9399 28.2075 53.0297 28.3846 53.1196 28.4731C53.2095 28.5616 53.2994 28.5616 53.4792 28.5616C53.569 28.5616 53.7488 28.5616 53.8387 28.3846L54.0184 28.6502C53.9286 28.7387 53.8387 28.7387 53.7488 28.8272C53.6589 28.9157 53.569 28.9157 53.3893 28.9157V28.9157Z" fill="#0057C2"/>
<path d="M54.9173 28.6502C55.0071 28.6502 55.097 28.6502 55.1869 28.5616C55.2768 28.4731 55.3667 28.3846 55.3667 28.2961V28.2075C55.1869 28.2075 55.097 28.119 55.0071 28.119C54.8274 28.119 54.7375 28.2075 54.7375 28.2075C54.6776 28.2665 54.6476 28.3256 54.6476 28.3846C54.6476 28.4731 54.6476 28.5616 54.7375 28.5616C54.7375 28.6502 54.8274 28.6502 54.9173 28.6502V28.6502ZM54.8274 28.9157C54.6476 28.9157 54.5577 28.8272 54.4678 28.7387C54.2881 28.6502 54.2881 28.5616 54.2881 28.4731V28.3846C54.2881 28.2961 54.2881 28.119 54.4678 28.0305C54.5577 27.942 54.7375 27.942 54.9173 27.942C55.0071 27.942 55.1869 27.942 55.2768 28.0305V27.942C55.2768 27.7649 55.1869 27.6764 54.9173 27.6764C54.8274 27.6764 54.6476 27.6764 54.4678 27.7649L54.378 27.4993C54.5577 27.4108 54.8274 27.3223 55.0071 27.3223C55.1869 27.3223 55.3667 27.4108 55.4565 27.4993C55.6363 27.5878 55.6363 27.7649 55.6363 27.942V28.8272H55.2768V28.6502C55.1869 28.8272 55.0071 28.9157 54.8274 28.9157V28.9157Z" fill="#0057C2"/>
<path d="M56.0857 28.8272V27.3223H56.4452V27.5878C56.5351 27.4108 56.7149 27.3223 56.8946 27.3223C57.0744 27.3223 57.2541 27.4108 57.344 27.4993C57.4339 27.5878 57.4339 27.7649 57.4339 27.942V28.8272H57.0744V28.0305C57.0744 27.8534 57.0744 27.7649 56.9845 27.7649C56.9845 27.6764 56.8946 27.6764 56.8047 27.6764C56.7149 27.6764 56.625 27.6764 56.5351 27.7649C56.4452 27.7649 56.4452 27.8534 56.4452 28.0305V28.8272H56.0857Z" fill="#0057C2"/>
<path d="M60.4899 28.2953C60.4899 28.1183 60.3102 28.0298 60.0405 28.0298H59.5012V28.5609H60.1304C60.2203 28.5609 60.3102 28.5609 60.4001 28.4724C60.4899 28.4724 60.4899 28.3839 60.4899 28.2953V28.2953ZM60.4001 27.4101C60.4001 27.3215 60.3102 27.3215 60.3102 27.233C60.2203 27.233 60.1304 27.1445 60.0405 27.1445H59.5012V27.6756H59.9507C60.1304 27.6756 60.2203 27.6756 60.3102 27.6756C60.3102 27.5871 60.4001 27.4986 60.4001 27.4101V27.4101ZM59.1417 28.8265V26.8789H60.0405C60.3102 26.8789 60.4899 26.8789 60.5798 27.056C60.6697 27.1445 60.7596 27.233 60.7596 27.4101C60.7596 27.5871 60.6697 27.7642 60.4001 27.8527C60.5798 27.8527 60.6697 27.9412 60.7596 28.0298C60.7596 28.1183 60.8495 28.2068 60.8495 28.2953C60.8495 28.4724 60.7596 28.6494 60.6697 28.738C60.4899 28.8265 60.3102 28.8265 60.1304 28.8265H59.1417Z" fill="#0057C2"/>
<path d="M61.4785 28.0305H62.2875C62.1976 27.8534 62.1976 27.7649 62.1077 27.6764C62.1077 27.6764 62.0178 27.5878 61.8381 27.5878C61.7482 27.5878 61.6583 27.6764 61.5684 27.6764C61.5684 27.7649 61.4785 27.8534 61.4785 28.0305V28.0305ZM61.9279 28.9157C61.6583 28.9157 61.4785 28.8272 61.2988 28.6502C61.2089 28.5616 61.119 28.3846 61.119 28.119C61.119 27.8534 61.2089 27.6764 61.2988 27.5878C61.4785 27.4108 61.6583 27.3223 61.8381 27.3223C62.1077 27.3223 62.2875 27.4108 62.3774 27.5878C62.5571 27.6764 62.647 27.942 62.647 28.119L62.5571 28.2075H61.4785C61.4785 28.3846 61.5684 28.4731 61.6583 28.5616C61.6583 28.5616 61.8381 28.6502 61.9279 28.6502C62.0178 28.6502 62.1976 28.5616 62.2875 28.4731L62.5571 28.6502C62.3773 28.8272 62.1976 28.9157 61.9279 28.9157V28.9157Z" fill="#0057C2"/>
<path d="M63.5459 28.4731L63.9054 27.3223H64.3548L63.7256 28.9157C63.6357 29.0928 63.5459 29.1813 63.456 29.2698C63.456 29.2698 63.3661 29.3584 63.1863 29.3584C63.0965 29.3584 62.9167 29.2698 62.8268 29.2698L62.9167 29.0043C63.0066 29.0043 63.0965 29.0043 63.1863 29.0043H63.2762C63.2762 29.0043 63.3661 28.9157 63.3661 28.8272L62.7369 27.3223H63.0965L63.5459 28.4731Z" fill="#0057C2"/>
<path d="M64.6243 28.8272V27.3223H64.9839V27.5878C65.0737 27.4108 65.2535 27.3223 65.4333 27.3223C65.613 27.3223 65.7928 27.4108 65.8827 27.4993C65.9725 27.5878 65.9725 27.7649 65.9725 27.942V28.8272H65.613V28.0305C65.613 27.8534 65.613 27.7649 65.5231 27.7649C65.5231 27.6764 65.4333 27.6764 65.3434 27.6764C65.2535 27.6764 65.1636 27.6764 65.0737 27.7649C64.9839 27.7649 64.9839 27.8534 64.9839 28.0305V28.8272H64.6243Z" fill="#0057C2"/>
<path d="M67.5005 28.2075H66.6916C66.6916 28.2961 66.6916 28.3846 66.7815 28.4731C66.8714 28.5616 66.9613 28.6502 67.0511 28.6502C67.141 28.6502 67.2309 28.5616 67.3208 28.4731C67.4107 28.4731 67.4107 28.2961 67.5005 28.2075V28.2075ZM67.0511 27.3223C67.2309 27.3223 67.4107 27.4108 67.5904 27.4993C67.7702 27.6764 67.8601 27.8534 67.8601 28.119C67.8601 28.2961 67.7702 28.5616 67.5904 28.6502C67.5005 28.8272 67.3208 28.9157 67.0511 28.9157C66.8714 28.9157 66.6916 28.8272 66.5119 28.6502C66.422 28.4731 66.3321 28.2961 66.3321 28.119C66.3321 28.06 66.3321 28.0305 66.3321 28.0305H67.5005C67.4107 27.8534 67.4107 27.7649 67.3208 27.6764C67.2309 27.6764 67.141 27.5878 67.0511 27.5878C66.8714 27.5878 66.6916 27.6764 66.6017 27.7649L66.422 27.5878C66.6017 27.4108 66.7815 27.3223 67.0511 27.3223V27.3223Z" fill="#0057C2"/>
<path d="M68.2197 26.791H68.5792V28.8271H68.2197V26.791Z" fill="#0057C2"/>
<path d="M69.2982 27.3223L69.6577 27.8534L70.0172 27.3223H70.3767L69.8374 28.119L70.3767 28.8272H70.0172L69.6577 28.2961L69.2083 28.8272H68.8488L69.388 28.119L68.8488 27.3223H69.2982Z" fill="#0057C2"/>
<path d="M71.1857 28.6502C71.2756 28.6502 71.3654 28.6502 71.4553 28.5616C71.5452 28.4731 71.6351 28.3846 71.6351 28.2961V28.2075C71.4553 28.2075 71.3655 28.119 71.2756 28.119C71.0958 28.119 71.0059 28.2075 71.0059 28.2075C70.946 28.2665 70.916 28.3256 70.916 28.3846C70.916 28.4731 70.916 28.5616 71.0059 28.5616C71.0059 28.6502 71.0958 28.6502 71.1857 28.6502V28.6502ZM71.0958 28.9157C70.916 28.9157 70.8262 28.8272 70.7363 28.7387C70.5565 28.6502 70.5565 28.5616 70.5565 28.4731V28.3846C70.5565 28.2961 70.5565 28.119 70.7363 28.0305C70.8262 27.942 71.0059 27.942 71.1857 27.942C71.3655 27.942 71.4553 27.942 71.6351 28.0305V27.942C71.6351 27.7649 71.4553 27.6764 71.1857 27.6764C71.0958 27.6764 70.916 27.6764 70.7363 27.7649L70.6464 27.4993C70.916 27.4108 71.0958 27.3223 71.2756 27.3223C71.4553 27.3223 71.6351 27.4108 71.725 27.4993C71.9047 27.5878 71.9047 27.7649 71.9047 27.942V28.8272H71.5452V28.6502C71.4553 28.8272 71.2756 28.9157 71.0958 28.9157Z" fill="#0057C2"/>
<path d="M72.3542 26.791H72.7137V28.8271H72.3542V26.791Z" fill="#0057C2"/>
<path d="M73.8821 28.5616C74.0619 28.5616 74.1517 28.5616 74.2416 28.4731C74.3315 28.3846 74.3315 28.2961 74.3315 28.119C74.3315 27.942 74.3315 27.8534 74.2416 27.7649C74.1517 27.6764 74.0619 27.5878 73.8821 27.5878C73.7922 27.5878 73.7023 27.6764 73.6125 27.7649C73.5226 27.8534 73.4327 27.942 73.4327 28.119C73.4327 28.2961 73.5226 28.3846 73.6125 28.4731C73.7023 28.5616 73.7922 28.5616 73.8821 28.5616ZM74.3315 29.3584V28.6502C74.2416 28.8272 74.0619 28.9157 73.7922 28.9157C73.6125 28.9157 73.4327 28.8272 73.3428 28.6502C73.1631 28.5616 73.0732 28.3846 73.0732 28.119C73.0732 27.8534 73.1631 27.6764 73.3428 27.4993C73.4327 27.4108 73.6125 27.3223 73.7922 27.3223C74.0619 27.3223 74.2416 27.4108 74.3315 27.5878V27.3223H74.691V29.3584H74.3315Z" fill="#0057C2"/>
<path d="M77.6571 28.2953C77.6571 28.1183 77.5672 28.0298 77.2976 28.0298H76.6684V28.5609H77.2976C77.3875 28.5609 77.4774 28.5609 77.5672 28.4724C77.6571 28.4724 77.6571 28.3839 77.6571 28.2953V28.2953ZM77.5672 27.4101C77.5672 27.3511 77.5373 27.292 77.4774 27.233C77.3875 27.233 77.2976 27.1445 77.2077 27.1445H76.6684V27.6756H77.2077C77.2976 27.6756 77.3875 27.6756 77.4774 27.6756C77.5672 27.5871 77.5672 27.4986 77.5672 27.4101V27.4101ZM76.3089 28.8265V26.8789H77.2077C77.4774 26.8789 77.6571 26.8789 77.747 27.056C77.8369 27.1445 77.9268 27.233 77.9268 27.4101C77.9268 27.5871 77.8369 27.7642 77.6571 27.8527C77.747 27.8527 77.8369 27.9412 77.9268 28.0298C78.0166 28.1183 78.0166 28.2068 78.0166 28.2953C78.0166 28.4724 77.9268 28.6494 77.8369 28.738C77.6571 28.8265 77.4774 28.8265 77.2976 28.8265H76.3089Z" fill="#0057C2"/>
<path d="M78.9155 28.6502C79.0952 28.6502 79.1851 28.6502 79.1851 28.5616C79.275 28.4731 79.3649 28.3846 79.3649 28.2961V28.2075C79.275 28.2075 79.0952 28.119 79.0054 28.119C78.9155 28.119 78.8256 28.2075 78.7357 28.2075C78.6758 28.2665 78.6458 28.3256 78.6458 28.3846C78.6458 28.4731 78.6458 28.5616 78.7357 28.5616C78.7357 28.6502 78.8256 28.6502 78.9155 28.6502V28.6502ZM78.8256 28.9157C78.6458 28.9157 78.556 28.8272 78.4661 28.7387C78.3762 28.6502 78.2863 28.5616 78.2863 28.4731V28.3846C78.2863 28.2961 78.3762 28.119 78.4661 28.0305C78.556 27.942 78.7357 27.942 78.9155 27.942C79.0952 27.942 79.1851 27.942 79.3649 28.0305V27.942C79.3649 27.7649 79.1851 27.6764 78.9155 27.6764C78.8256 27.6764 78.6458 27.6764 78.556 27.7649L78.4661 27.4993C78.6458 27.4108 78.8256 27.3223 79.0054 27.3223C79.275 27.3223 79.3649 27.4108 79.5446 27.4993C79.6345 27.5878 79.6345 27.7649 79.6345 27.942V28.8272H79.3649V28.6502C79.1851 28.8272 79.0054 28.9157 78.8256 28.9157V28.9157Z" fill="#0057C2"/>
<path d="M80.084 28.8272V27.3223H80.4435V27.5878C80.6233 27.4108 80.7132 27.3223 80.8929 27.3223C81.0727 27.3223 81.2524 27.4108 81.3423 27.4993C81.4322 27.5878 81.5221 27.7649 81.5221 27.942V28.8272H81.1626V28.0305C81.1626 27.8534 81.0727 27.7649 81.0727 27.7649C80.9828 27.6764 80.8929 27.6764 80.803 27.6764C80.7132 27.6764 80.6233 27.6764 80.5334 27.7649C80.4435 27.7649 80.4435 27.8534 80.4435 28.0305V28.8272H80.084Z" fill="#0057C2"/>
<path d="M81.8816 28.8271V26.791H82.2411V28.0304L82.8703 27.3222H83.3197L82.6905 27.9419L83.3197 28.8271H82.9602L82.5108 28.2074L82.2411 28.473V28.8271H81.8816Z" fill="#0057C2"/>
<path d="M83.5893 27.3223H83.9488V28.8272H83.5893V27.3223Z" fill="#0057C2"/>
<path d="M116.935 13.6888C116.755 14.22 116.665 14.9282 116.665 15.8135C116.665 16.6102 116.755 17.3184 116.935 17.8496C117.205 18.3807 117.474 18.8234 117.834 19.089C118.193 19.3545 118.553 19.5316 119.002 19.5316C119.362 19.5316 119.721 19.3545 120.081 19.089C120.44 18.8234 120.8 18.3807 120.98 17.8496C121.249 17.3184 121.339 16.6102 121.339 15.8135C121.339 14.9282 121.249 14.22 120.98 13.6888C120.8 13.1577 120.44 12.715 120.081 12.4495C119.721 12.1839 119.362 12.0068 119.002 12.0068C118.553 12.0068 118.193 12.1839 117.834 12.4495C117.474 12.715 117.205 13.1577 116.935 13.6888Z" fill="#0057C2"/>
<path d="M108.666 9.17455C109.385 9.52865 109.924 9.97128 110.374 10.591C110.733 11.2107 110.913 11.8303 110.913 12.45C110.913 13.2468 110.733 13.7779 110.284 14.3091C109.835 14.7517 109.295 15.1058 108.666 15.3714C109.385 15.637 110.014 16.0796 110.554 16.6108C111.093 17.2305 111.363 17.9387 111.363 18.7354C111.363 19.5321 111.093 20.2403 110.733 20.86C110.284 21.4797 109.655 22.0109 108.846 22.365C108.037 22.7191 107.048 22.8961 105.97 22.8961C104.891 22.8961 103.902 22.7191 102.914 22.2765C102.015 21.8338 101.206 21.3027 100.667 20.683L102.824 18.4698C103.183 18.8239 103.543 19.0895 103.992 19.2666C104.532 19.5321 104.981 19.6207 105.52 19.6207C105.97 19.6207 106.239 19.5321 106.509 19.4436C106.779 19.3551 106.958 19.178 107.138 19.001C107.228 18.8239 107.318 18.6469 107.318 18.3813C107.318 18.1157 107.228 17.9387 107.138 17.7616C106.958 17.5846 106.779 17.4075 106.509 17.319C106.239 17.1419 105.97 17.1419 105.52 17.1419H104.172V14.132H105.52C105.88 14.132 106.149 14.0435 106.329 13.955C106.599 13.8664 106.779 13.7779 106.868 13.6009C106.958 13.4238 107.048 13.2468 107.048 12.9812C107.048 12.7156 106.958 12.5386 106.868 12.3615C106.779 12.1844 106.599 12.0959 106.329 11.9189C106.149 11.8303 105.88 11.8303 105.52 11.8303C105.161 11.8303 104.711 11.9189 104.262 12.0959C103.902 12.3615 103.543 12.5385 103.273 12.8927L101.116 10.6795C101.655 10.0598 102.374 9.61718 103.273 9.26307C104.082 8.82044 104.981 8.64339 106.06 8.64339C107.048 8.64339 107.857 8.82044 108.666 9.17455ZM121.968 9.52865C122.957 10.1483 123.676 10.9451 124.215 12.0074C124.755 13.1582 125.024 14.3976 125.024 15.814C125.024 17.1419 124.755 18.3813 124.215 19.5321C123.676 20.5945 122.957 21.3912 121.968 22.0109C121.07 22.6306 120.081 22.8961 119.002 22.8961C117.924 22.8961 116.845 22.6306 115.946 22.0109C115.048 21.3912 114.329 20.5945 113.699 19.5321C113.16 18.3813 112.89 17.1419 112.89 15.814C112.89 14.3976 113.16 13.1582 113.699 12.0074C114.329 10.9451 115.048 10.1483 115.946 9.52865C116.845 8.90897 117.924 8.64339 119.002 8.64339C120.081 8.64339 121.07 8.90897 121.968 9.52865ZM130.238 9.3516C130.597 9.7057 130.687 10.0598 130.687 10.591C130.687 11.0336 130.597 11.4762 130.238 11.8303C129.878 12.0959 129.429 12.273 128.889 12.273C128.35 12.273 127.901 12.0959 127.541 11.8303C127.182 11.4762 127.002 11.0336 127.002 10.591C127.002 10.0598 127.182 9.7057 127.541 9.3516C127.901 8.99749 128.35 8.82044 128.889 8.82044C129.429 8.82044 129.878 8.99749 130.238 9.3516ZM130.507 22.542H127.182V13.2468H130.507V22.542ZM136.439 22.542H133.114V8.99749H136.439V22.542ZM142.641 2.00391C142.641 2.00391 111.452 5.0138 91.4089 4.30559V26.9684C91.4089 26.9684 102.554 27.411 105.43 26.9684V32.457C105.43 32.457 128.799 32.457 151 29.5356L149.742 5.89907L143.72 7.49255L142.641 2.00391Z" fill="#0057C2"/>
</g>
<defs>
<clipPath id="clip0_3640_1483">
<rect width="154" height="38" fill="white"/>
</clipPath>
</defs>
</svg>
