<svg width="197" height="50" viewBox="0 0 197 50" fill="none" xmlns="http://www.w3.org/2000/svg">
<path d="M83.1677 27.9131H79.2073V22.6715H83.0512C84.3325 22.6715 85.3809 22.9044 86.0797 23.2539C86.6621 23.7198 87.0116 24.3022 87.0116 25.2341C87.0116 27.0978 85.7303 27.9131 83.1677 27.9131V27.9131ZM79.2073 14.8672H82.1194C83.5171 14.8672 84.5655 14.9837 85.2644 15.3331C85.8468 15.5661 86.1962 16.1485 86.1962 17.0804C86.1962 17.4298 86.0797 17.8957 85.8468 18.2452C85.6138 18.7111 85.2644 19.0606 84.7984 19.177C84.216 19.41 83.5171 19.41 82.5853 19.41H79.2073V14.8672ZM87.827 20.8078C89.5742 19.8759 90.3896 18.3617 90.3896 16.498C90.3896 15.9156 90.2731 15.4496 90.1566 14.8672C89.9236 14.4013 89.6907 13.8189 89.3412 13.4694C88.8753 13.0035 88.5258 12.6541 88.0599 12.3046C87.4775 12.0717 86.8951 11.8387 86.1962 11.7222C85.4973 11.6057 84.682 11.4893 83.7501 11.4893H77.4601C76.5283 11.4893 75.9459 11.7222 75.4799 12.0717C75.1305 12.5376 74.8975 13.2365 74.8975 14.0518V31.2911H83.4007C84.3325 31.2911 85.2644 31.1746 86.0797 31.0581C86.7786 30.9417 87.594 30.8252 88.1764 30.5922C89.1083 30.1263 89.9236 29.4274 90.506 28.612C91.0884 27.6802 91.3214 26.6319 91.3214 25.5835C91.3214 23.2539 90.1566 21.6231 87.827 20.8078V20.8078Z" fill="#0057C2"/>
<path d="M62.2011 16.1481H62.3176L64.8802 23.3699H59.6385L62.2011 16.1481ZM58.4737 26.6314H66.045L67.7922 31.1742H72.2185L70.9372 28.1457C70.9372 27.9127 70.8208 27.7962 70.7043 27.5633L65.3461 13.702C65.1132 13.236 64.8802 12.7701 64.6472 12.4207C64.4143 12.0712 64.0648 11.8383 63.7154 11.6053C63.3659 11.3723 62.7835 11.2559 62.3176 11.2559C61.7352 11.2559 61.2693 11.3723 60.8034 11.6053C60.4539 11.8383 60.1045 12.0712 59.8715 12.4207C59.6385 12.7701 59.4056 13.236 59.2891 13.702L53.8145 27.5633C53.698 27.7962 53.698 27.9127 53.5815 28.1457L52.4167 31.1742H56.843L58.4737 26.6314Z" fill="#0057C2"/>
<path d="M102.271 27.9131H98.1939V22.6715H102.154C103.436 22.6715 104.484 22.9044 105.066 23.2539C105.765 23.7198 105.998 24.3022 105.998 25.2341C105.998 27.0978 104.833 27.9131 102.271 27.9131ZM98.1939 14.8672H101.222C102.62 14.8672 103.668 14.9837 104.367 15.3331C104.95 15.5661 105.299 16.1485 105.299 17.0804C105.299 17.4298 105.183 17.8957 104.95 18.2452C104.717 18.7111 104.367 19.0606 103.901 19.177C103.319 19.41 102.62 19.41 101.688 19.41H98.1939V14.8672ZM106.813 20.8078C108.561 19.8759 109.493 18.3617 109.493 16.498C109.493 15.9156 109.376 15.4496 109.143 14.8672C109.027 14.4013 108.677 13.8189 108.328 13.4694C107.978 13.0035 107.629 12.6541 107.046 12.3046C106.581 12.0717 105.882 11.8387 105.183 11.7222C104.484 11.6057 103.668 11.4893 102.737 11.4893H96.4466C95.6313 11.4893 94.9324 11.7222 94.5829 12.0717C94.117 12.5376 93.884 13.2365 93.884 14.0518V31.2911H102.387C103.436 31.2911 104.367 31.1746 105.066 31.0581C105.882 30.9417 106.581 30.8252 107.163 30.5922C108.211 30.1263 108.91 29.4274 109.493 28.612C110.075 27.6802 110.424 26.6319 110.424 25.5835C110.424 23.2539 109.26 21.6231 106.813 20.8078V20.8078Z" fill="#0057C2"/>
<path d="M9.31852 24.9995C6.40649 20.4567 5.00871 15.0986 5.94056 9.62392C6.29001 7.76022 7.80426 6.36244 9.66797 6.013C11.2987 5.78003 12.58 5.66355 14.9096 5.89652C14.0943 7.29429 13.5119 8.69207 13.0459 10.0898C11.8811 9.97337 10.5998 10.2063 10.2504 10.3228C9.31852 13.9337 10.4833 19.9908 14.2107 24.9995H9.31852Z" fill="#0057C2"/>
<path d="M13.8612 13.9347C15.026 8.80949 17.8216 3.91726 22.3643 0.772264C23.8786 -0.276069 25.9753 -0.276068 27.4895 0.888746C28.8873 1.8206 29.8192 2.63597 31.3334 4.38319C29.7027 4.84912 28.4214 5.43152 27.0236 6.01393C26.2082 5.19856 25.2764 4.49967 24.9269 4.26671C21.6655 6.13041 18.2875 11.2556 17.3556 17.5456L13.8612 13.9347Z" fill="#0057C2"/>
<path d="M24.927 9.39191C29.3533 6.59635 34.7114 5.08209 40.1861 6.13043C42.0498 6.47987 43.4476 7.87765 43.797 9.74135C44.03 11.4886 44.1464 12.6534 44.03 14.983C42.6322 14.1676 41.1179 13.7017 39.8366 13.1193C39.8366 11.9545 39.6037 10.7897 39.4872 10.3238C35.9927 9.39191 29.9357 10.6732 24.927 14.4006V9.39191Z" fill="#0057C2"/>
<path d="M35.8763 13.9336C41.1179 15.2149 45.8937 17.894 49.0387 22.4367C50.2035 24.0675 50.087 26.0477 49.0387 27.5619C47.9903 28.9597 47.2915 29.8916 45.4278 31.4058C45.0783 29.8916 44.3794 28.4938 43.797 27.2125C44.7289 26.3971 45.3113 25.3488 45.5442 24.9993C43.6805 21.8543 38.5554 18.3599 32.3818 17.5445L35.8763 13.9336Z" fill="#0057C2"/>
<path d="M40.5356 25C43.3311 29.5428 44.7289 34.9009 43.7971 40.3756C43.4476 42.2393 41.9334 43.637 40.0697 43.87C38.4389 44.2194 37.1576 44.3359 34.828 44.103C35.6434 42.7052 36.2258 41.3074 36.6917 39.9096C37.8565 39.9096 39.1378 39.6767 39.4873 39.5602C40.4191 36.0657 39.2543 30.0087 35.5269 25H40.5356Z" fill="#0057C2"/>
<path d="M35.8763 36.065C34.7115 41.1902 31.916 46.0824 27.3732 49.2274C25.8589 50.2758 23.7623 50.2758 22.248 49.111C20.8502 48.1791 19.9184 47.3637 18.4041 45.6165C20.0349 45.1506 21.3162 44.5682 22.7139 43.9858C23.5293 44.8011 24.5776 45.5 24.9271 45.6165C28.0721 43.8693 31.45 38.6276 32.3819 32.4541L35.8763 36.065Z" fill="#0057C2"/>
<path d="M24.9271 40.6097C20.3843 43.4052 15.0261 44.9195 9.55151 43.8711C7.68781 43.5217 6.29003 42.0074 5.94059 40.2602C5.70762 38.513 5.59114 37.3482 5.70762 35.0186C7.22188 35.8339 8.61966 36.2999 9.90096 36.8823C9.90096 38.0471 10.1339 39.2119 10.2504 39.5613C13.7448 40.6097 19.8019 39.3284 24.9271 35.601V40.6097Z" fill="#0057C2"/>
<path d="M13.8613 36.0672C8.61963 34.7859 3.84389 32.1068 0.698889 27.5641C-0.232963 25.9333 -0.232963 23.8367 0.698889 22.3224C1.74722 21.0411 2.44611 20.1093 4.30981 18.4785C4.65926 20.1093 5.35815 21.507 5.94055 22.7883C5.0087 23.6037 4.4263 24.652 4.19333 25.0015C6.05704 28.1465 11.1822 31.6409 17.3557 32.4563L13.8613 36.0672Z" fill="#0057C2"/>
<path d="M53.3485 36.8805H54.2804L53.8145 35.8321L53.3485 36.8805ZM52.4167 37.9288L53.5815 35.3662H54.0474L55.2122 37.9288H54.7463L54.5134 37.3464H53.2321L52.9991 37.9288H52.4167Z" fill="#0057C2"/>
<path d="M55.5617 37.9304V37.6974L56.7265 36.4161H55.5617V35.9502H57.3089V36.2996L56.1441 37.5809H57.3089V37.9304H55.5617Z" fill="#0057C2"/>
<path d="M59.0561 37.115H58.0078C58.0078 37.2315 58.1243 37.348 58.2408 37.4645C58.2408 37.5809 58.3572 37.6974 58.5902 37.6974C58.7067 37.6974 58.8232 37.5809 58.9397 37.4645C58.9397 37.4645 59.0561 37.2315 59.0561 37.115ZM58.4737 35.9502C58.8232 35.9502 59.0561 36.0667 59.1726 36.1832C59.4056 36.4161 59.5221 36.6491 59.5221 36.9985C59.5221 37.2315 59.4056 37.5809 59.2891 37.6974C59.0561 37.9304 58.8232 38.0469 58.5902 38.0469C58.2408 38.0469 58.0078 37.9304 57.7748 37.6974C57.6584 37.4645 57.5419 37.2315 57.5419 36.9985C57.5419 36.9209 57.5419 36.882 57.5419 36.882H59.0561C59.0561 36.6491 58.9396 36.5326 58.8232 36.4161C58.7067 36.4161 58.5902 36.2996 58.4737 36.2996C58.2408 36.2996 58.1243 36.4161 57.8913 36.5326L57.6583 36.2996C57.8913 36.0667 58.1243 35.9502 58.4737 35.9502V35.9502Z" fill="#0057C2"/>
<path d="M59.988 37.9304V35.9502H60.4539V36.4161C60.5704 36.0667 60.8033 35.9502 61.1528 35.9502V36.4161C60.9198 36.4161 60.6869 36.5326 60.5704 36.6491C60.4539 36.7656 60.4539 36.9985 60.4539 37.2315V37.9304H59.988Z" fill="#0057C2"/>
<path d="M62.0846 37.4641C62.2011 37.5806 62.434 37.5806 62.5505 37.5806C62.667 37.5806 62.9 37.5806 62.9 37.4641C63.0164 37.3476 63.1329 37.2312 63.1329 36.9982C63.1329 36.7652 63.0164 36.6487 62.9 36.5323C62.7835 36.4158 62.667 36.2993 62.5505 36.2993C62.434 36.2993 62.2011 36.4158 62.0846 36.5323C61.9681 36.6487 61.9681 36.7652 61.9681 36.9982C61.9681 37.2312 61.9681 37.3476 62.0846 37.4641ZM62.667 38.0465C62.434 38.0465 62.2011 37.93 61.9681 37.6971V37.93H61.5022V35.251H61.9681V36.2993C62.2011 36.0663 62.434 35.9499 62.667 35.9499C62.9 35.9499 63.1329 36.0663 63.2494 36.1828C63.4824 36.4158 63.5989 36.6488 63.5989 36.9982C63.5989 37.3476 63.4824 37.5806 63.2494 37.6971C63.1329 37.93 62.9 38.0465 62.667 38.0465V38.0465Z" fill="#0057C2"/>
<path d="M64.7636 37.6974C64.8801 37.6974 64.9966 37.6974 65.1131 37.5809C65.2295 37.4645 65.2295 37.348 65.2295 37.2315V37.115C65.1131 37.115 64.9966 36.9985 64.8801 36.9985C64.6471 36.9985 64.5306 37.115 64.5306 37.115C64.453 37.1927 64.4142 37.2703 64.4142 37.348C64.4142 37.4645 64.4142 37.5809 64.4142 37.5809C64.5306 37.6974 64.6471 37.6974 64.7636 37.6974V37.6974ZM64.6471 38.0469C64.4142 38.0469 64.2977 37.9304 64.0647 37.8139C63.9482 37.6974 63.9482 37.5809 63.9482 37.4645V37.348C63.9482 37.2315 63.9482 36.9985 64.1812 36.882C64.2977 36.7656 64.5306 36.7656 64.7636 36.7656C64.8801 36.7656 65.1131 36.7656 65.2295 36.882V36.7656C65.2295 36.5326 65.1131 36.4161 64.7636 36.4161C64.6471 36.4161 64.4142 36.4161 64.1812 36.5326L64.0647 36.1832C64.2977 36.0667 64.6471 35.9502 64.8801 35.9502C65.1131 35.9502 65.346 36.0667 65.4625 36.1832C65.6955 36.2996 65.6955 36.5326 65.6955 36.7656V37.9304H65.2295V37.6974C65.1131 37.9304 64.8801 38.0469 64.6471 38.0469V38.0469Z" fill="#0057C2"/>
<path d="M67.0933 37.4645L67.5592 35.9502H68.0252L67.2098 38.0469C67.2098 38.2798 67.0933 38.3963 66.9768 38.5128C66.8604 38.5128 66.7439 38.6293 66.6274 38.6293C66.3944 38.6293 66.2779 38.5128 66.1615 38.5128L66.2779 38.1633C66.3944 38.1633 66.5109 38.1633 66.5109 38.1633C66.5886 38.1633 66.6662 38.1633 66.7439 38.1633C66.7439 38.1633 66.7439 38.0469 66.8604 37.9304L66.045 35.9502H66.5109L67.0933 37.4645Z" fill="#0057C2"/>
<path d="M69.19 38.0469C68.957 38.0469 68.724 37.9304 68.4911 37.6974C68.2581 37.5809 68.2581 37.2315 68.2581 36.9985C68.2581 36.6491 68.2581 36.4161 68.4911 36.2996C68.724 36.0667 68.957 35.9502 69.19 35.9502C69.5394 35.9502 69.7724 36.0667 70.0053 36.2996L69.7724 36.6491C69.5394 36.4161 69.4229 36.2996 69.19 36.2996C69.0735 36.2996 68.957 36.4161 68.8405 36.5326C68.724 36.6491 68.6076 36.7656 68.6076 36.9985C68.6076 37.115 68.724 37.348 68.8405 37.4645C68.957 37.5809 69.0735 37.5809 69.3064 37.5809C69.4229 37.5809 69.6559 37.5809 69.7724 37.348L70.0053 37.6974C69.8889 37.8139 69.7724 37.8139 69.6559 37.9304C69.5394 38.0469 69.4229 38.0469 69.19 38.0469V38.0469Z" fill="#0057C2"/>
<path d="M71.1702 37.6974C71.2866 37.6974 71.4031 37.6974 71.5196 37.5809C71.6361 37.4645 71.7526 37.348 71.7526 37.2315V37.115C71.5196 37.115 71.4031 36.9985 71.2866 36.9985C71.0537 36.9985 70.9372 37.115 70.9372 37.115C70.8595 37.1927 70.8207 37.2703 70.8207 37.348C70.8207 37.4645 70.8207 37.5809 70.9372 37.5809C70.9372 37.6974 71.0537 37.6974 71.1702 37.6974V37.6974ZM71.0537 38.0469C70.8207 38.0469 70.7042 37.9304 70.5878 37.8139C70.3548 37.6974 70.3548 37.5809 70.3548 37.4645V37.348C70.3548 37.2315 70.3548 36.9985 70.5878 36.882C70.7042 36.7656 70.9372 36.7656 71.1702 36.7656C71.2866 36.7656 71.5196 36.7656 71.6361 36.882V36.7656C71.6361 36.5326 71.5196 36.4161 71.1702 36.4161C71.0537 36.4161 70.8207 36.4161 70.5878 36.5326L70.4713 36.1832C70.7042 36.0667 71.0537 35.9502 71.2866 35.9502C71.5196 35.9502 71.7526 36.0667 71.8691 36.1832C72.102 36.2996 72.102 36.5326 72.102 36.7656V37.9304H71.6361V37.6974C71.5196 37.9304 71.2866 38.0469 71.0537 38.0469V38.0469Z" fill="#0057C2"/>
<path d="M72.6844 37.9304V35.9502H73.1503V36.2996C73.2668 36.0667 73.4998 35.9502 73.7327 35.9502C73.9657 35.9502 74.1986 36.0667 74.3151 36.1832C74.4316 36.2996 74.4316 36.5326 74.4316 36.7656V37.9304H73.9657V36.8821C73.9657 36.6491 73.9657 36.5326 73.8492 36.5326C73.8492 36.4161 73.7327 36.4161 73.6162 36.4161C73.4998 36.4161 73.3833 36.4161 73.2668 36.5326C73.1503 36.5326 73.1503 36.6491 73.1503 36.8821V37.9304H72.6844Z" fill="#0057C2"/>
<path d="M78.3921 37.2299C78.3921 36.997 78.1591 36.8805 77.8097 36.8805H77.1108V37.5794H77.9261C78.0426 37.5794 78.1591 37.5794 78.2756 37.4629C78.3921 37.4629 78.3921 37.3464 78.3921 37.2299V37.2299ZM78.2756 36.0651C78.2756 35.9486 78.1591 35.9486 78.1591 35.8321C78.0426 35.8321 77.9261 35.7157 77.8097 35.7157H77.1108V36.4145H77.6932C77.9261 36.4145 78.0426 36.4145 78.1591 36.4145C78.1591 36.2981 78.2756 36.1816 78.2756 36.0651V36.0651ZM76.6448 37.9288V35.3662H77.8097C78.1591 35.3662 78.3921 35.3662 78.5085 35.5992C78.625 35.7157 78.7415 35.8321 78.7415 36.0651C78.7415 36.2981 78.625 36.531 78.2756 36.6475C78.5085 36.6475 78.625 36.764 78.7415 36.8805C78.7415 36.997 78.858 37.1134 78.858 37.2299C78.858 37.4629 78.7415 37.6958 78.625 37.8123C78.3921 37.9288 78.1591 37.9288 77.9261 37.9288H76.6448Z" fill="#0057C2"/>
<path d="M79.6733 36.882H80.7216C80.6051 36.6491 80.6051 36.5326 80.4886 36.4161C80.4886 36.4161 80.3722 36.2996 80.1392 36.2996C80.0227 36.2996 79.9062 36.4161 79.7897 36.4161C79.7897 36.5326 79.6733 36.6491 79.6733 36.882V36.882ZM80.2557 38.0469C79.9062 38.0469 79.6733 37.9304 79.4403 37.6974C79.3238 37.5809 79.2073 37.348 79.2073 36.9985C79.2073 36.6491 79.3238 36.4161 79.4403 36.2996C79.6733 36.0667 79.9062 35.9502 80.1392 35.9502C80.4886 35.9502 80.7216 36.0667 80.8381 36.2996C81.071 36.4161 81.1875 36.7656 81.1875 36.9985L81.071 37.115H79.6733C79.6733 37.348 79.7897 37.4645 79.9062 37.5809C79.9062 37.5809 80.1392 37.6974 80.2557 37.6974C80.3722 37.6974 80.6051 37.5809 80.7216 37.4645L81.071 37.6974C80.8381 37.9304 80.6051 38.0469 80.2557 38.0469V38.0469Z" fill="#0057C2"/>
<path d="M82.3524 37.4645L82.8183 35.9502H83.4007L82.5854 38.0469C82.4689 38.2798 82.3524 38.3963 82.2359 38.5128C82.2359 38.5128 82.1194 38.6293 81.8865 38.6293C81.77 38.6293 81.537 38.5128 81.4206 38.5128L81.537 38.1633C81.6535 38.1633 81.77 38.1633 81.8865 38.1633H82.003C82.003 38.1633 82.1194 38.0469 82.1194 37.9304L81.3041 35.9502H81.77L82.3524 37.4645Z" fill="#0057C2"/>
<path d="M83.7501 37.9304V35.9502H84.216V36.2996C84.3325 36.0667 84.5654 35.9502 84.7984 35.9502C85.0314 35.9502 85.2643 36.0667 85.3808 36.1832C85.4973 36.2996 85.4973 36.5326 85.4973 36.7656V37.9304H85.0314V36.8821C85.0314 36.6491 85.0314 36.5326 84.9149 36.5326C84.9149 36.4161 84.7984 36.4161 84.6819 36.4161C84.5654 36.4161 84.449 36.4161 84.3325 36.5326C84.216 36.5326 84.216 36.6491 84.216 36.8821V37.9304H83.7501Z" fill="#0057C2"/>
<path d="M87.4775 37.115H86.4292C86.4292 37.2315 86.4292 37.348 86.5457 37.4645C86.6621 37.5809 86.7786 37.6974 86.8951 37.6974C87.0116 37.6974 87.1281 37.5809 87.2445 37.4645C87.361 37.4645 87.361 37.2315 87.4775 37.115V37.115ZM86.8951 35.9502C87.1281 35.9502 87.361 36.0667 87.594 36.1832C87.827 36.4161 87.9434 36.6491 87.9434 36.9985C87.9434 37.2315 87.827 37.5809 87.594 37.6974C87.4775 37.9304 87.2445 38.0469 86.8951 38.0469C86.6621 38.0469 86.4292 37.9304 86.1962 37.6974C86.0797 37.4645 85.9633 37.2315 85.9633 36.9985C85.9633 36.9209 85.9633 36.882 85.9633 36.882H87.4775C87.361 36.6491 87.361 36.5326 87.2445 36.4161C87.1281 36.4161 87.0116 36.2996 86.8951 36.2996C86.6621 36.2996 86.4292 36.4161 86.3127 36.5326L86.0797 36.2996C86.3127 36.0667 86.5457 35.9502 86.8951 35.9502V35.9502Z" fill="#0057C2"/>
<path d="M88.4094 35.251H88.8754V37.93H88.4094V35.251Z" fill="#0057C2"/>
<path d="M89.8071 35.9502L90.2731 36.6491L90.739 35.9502H91.2049L90.506 36.9985L91.2049 37.9304H90.739L90.2731 37.2315L89.6907 37.9304H89.2247L89.9236 36.9985L89.2247 35.9502H89.8071Z" fill="#0057C2"/>
<path d="M92.2532 37.6974C92.3697 37.6974 92.4862 37.6974 92.6027 37.5809C92.7192 37.4645 92.8357 37.348 92.8357 37.2315V37.115C92.6027 37.115 92.4862 36.9985 92.3697 36.9985C92.1368 36.9985 92.0203 37.115 92.0203 37.115C91.9426 37.1927 91.9038 37.2703 91.9038 37.348C91.9038 37.4645 91.9038 37.5809 92.0203 37.5809C92.0203 37.6974 92.1368 37.6974 92.2532 37.6974V37.6974ZM92.1368 38.0469C91.9038 38.0469 91.7873 37.9304 91.6708 37.8139C91.4379 37.6974 91.4379 37.5809 91.4379 37.4645V37.348C91.4379 37.2315 91.4379 36.9985 91.6708 36.882C91.7873 36.7656 92.0203 36.7656 92.2532 36.7656C92.4862 36.7656 92.6027 36.7656 92.8357 36.882V36.7656C92.8357 36.5326 92.6027 36.4161 92.2532 36.4161C92.1368 36.4161 91.9038 36.4161 91.6708 36.5326L91.5543 36.1832C91.9038 36.0667 92.1368 35.9502 92.3697 35.9502C92.6027 35.9502 92.8356 36.0667 92.9521 36.1832C93.1851 36.2996 93.1851 36.5326 93.1851 36.7656V37.9304H92.7192V37.6974C92.6027 37.9304 92.3697 38.0469 92.1368 38.0469Z" fill="#0057C2"/>
<path d="M93.7676 35.251H94.2335V37.93H93.7676V35.251Z" fill="#0057C2"/>
<path d="M95.7477 37.5809C95.9807 37.5809 96.0972 37.5809 96.2137 37.4645C96.3301 37.348 96.3301 37.2315 96.3301 36.9985C96.3301 36.7656 96.3301 36.6491 96.2137 36.5326C96.0972 36.4161 95.9807 36.2996 95.7477 36.2996C95.6313 36.2996 95.5148 36.4161 95.3983 36.5326C95.2818 36.6491 95.1653 36.7656 95.1653 36.9985C95.1653 37.2315 95.2818 37.348 95.3983 37.4645C95.5148 37.5809 95.6313 37.5809 95.7477 37.5809ZM96.3301 38.6293V37.6974C96.2137 37.9304 95.9807 38.0469 95.6312 38.0469C95.3983 38.0469 95.1653 37.9304 95.0488 37.6974C94.8159 37.5809 94.6994 37.348 94.6994 36.9985C94.6994 36.6491 94.8159 36.4161 95.0488 36.1832C95.1653 36.0667 95.3983 35.9502 95.6312 35.9502C95.9807 35.9502 96.2137 36.0667 96.3301 36.2996V35.9502H96.7961V38.6293H96.3301Z" fill="#0057C2"/>
<path d="M100.64 37.2299C100.64 36.997 100.523 36.8805 100.174 36.8805H99.3586V37.5794H100.174C100.29 37.5794 100.407 37.5794 100.523 37.4629C100.64 37.4629 100.64 37.3464 100.64 37.2299V37.2299ZM100.523 36.0651C100.523 35.9874 100.485 35.9098 100.407 35.8321C100.29 35.8321 100.174 35.7157 100.058 35.7157H99.3586V36.4145H100.058C100.174 36.4145 100.29 36.4145 100.407 36.4145C100.523 36.2981 100.523 36.1816 100.523 36.0651V36.0651ZM98.8927 37.9288V35.3662H100.058C100.407 35.3662 100.64 35.3662 100.756 35.5992C100.873 35.7157 100.989 35.8321 100.989 36.0651C100.989 36.2981 100.873 36.531 100.64 36.6475C100.756 36.6475 100.873 36.764 100.989 36.8805C101.106 36.997 101.106 37.1134 101.106 37.2299C101.106 37.4629 100.989 37.6958 100.873 37.8123C100.64 37.9288 100.407 37.9288 100.174 37.9288H98.8927Z" fill="#0057C2"/>
<path d="M102.271 37.6974C102.504 37.6974 102.62 37.6974 102.62 37.5809C102.737 37.4645 102.853 37.348 102.853 37.2315V37.115C102.737 37.115 102.504 36.9985 102.387 36.9985C102.271 36.9985 102.154 37.115 102.038 37.115C101.96 37.1927 101.921 37.2703 101.921 37.348C101.921 37.4645 101.921 37.5809 102.038 37.5809C102.038 37.6974 102.154 37.6974 102.271 37.6974V37.6974ZM102.154 38.0469C101.921 38.0469 101.805 37.9304 101.688 37.8139C101.572 37.6974 101.455 37.5809 101.455 37.4645V37.348C101.455 37.2315 101.572 36.9985 101.688 36.882C101.805 36.7656 102.038 36.7656 102.271 36.7656C102.504 36.7656 102.62 36.7656 102.853 36.882V36.7656C102.853 36.5326 102.62 36.4161 102.271 36.4161C102.154 36.4161 101.921 36.4161 101.805 36.5326L101.688 36.1832C101.921 36.0667 102.154 35.9502 102.387 35.9502C102.737 35.9502 102.853 36.0667 103.086 36.1832C103.203 36.2996 103.203 36.5326 103.203 36.7656V37.9304H102.853V37.6974C102.62 37.9304 102.387 38.0469 102.154 38.0469V38.0469Z" fill="#0057C2"/>
<path d="M103.785 37.9304V35.9502H104.251V36.2996C104.484 36.0667 104.6 35.9502 104.833 35.9502C105.066 35.9502 105.299 36.0667 105.416 36.1832C105.532 36.2996 105.649 36.5326 105.649 36.7656V37.9304H105.183V36.8821C105.183 36.6491 105.066 36.5326 105.066 36.5326C104.95 36.4161 104.833 36.4161 104.717 36.4161C104.6 36.4161 104.484 36.4161 104.367 36.5326C104.251 36.5326 104.251 36.6491 104.251 36.8821V37.9304H103.785Z" fill="#0057C2"/>
<path d="M106.115 37.93V35.251H106.581V36.8817L107.396 35.9499H107.978L107.163 36.7652L107.978 37.93H107.512L106.93 37.1147L106.581 37.4641V37.93H106.115Z" fill="#0057C2"/>
<path d="M108.328 35.9502H108.794V37.9304H108.328V35.9502Z" fill="#0057C2"/>
<path d="M151.542 18.011C151.309 18.7099 151.193 19.6417 151.193 20.8066C151.193 21.8549 151.309 22.7867 151.542 23.4856C151.892 24.1845 152.241 24.7669 152.707 25.1164C153.173 25.4658 153.639 25.6988 154.221 25.6988C154.687 25.6988 155.153 25.4658 155.619 25.1164C156.085 24.7669 156.551 24.1845 156.784 23.4856C157.133 22.7867 157.25 21.8549 157.25 20.8066C157.25 19.6417 157.133 18.7099 156.784 18.011C156.551 17.3121 156.085 16.7297 155.619 16.3803C155.153 16.0308 154.687 15.7979 154.221 15.7979C153.639 15.7979 153.173 16.0308 152.707 16.3803C152.241 16.7297 151.892 17.3121 151.542 18.011Z" fill="#0057C2"/>
<path d="M140.826 12.0717C141.758 12.5376 142.457 13.1201 143.039 13.9354C143.505 14.7508 143.738 15.5662 143.738 16.3815C143.738 17.4299 143.505 18.1288 142.923 18.8276C142.34 19.4101 141.641 19.876 140.826 20.2254C141.758 20.5749 142.573 21.1573 143.272 21.8562C143.971 22.6715 144.32 23.6034 144.32 24.6517C144.32 25.7 143.971 26.6319 143.505 27.4473C142.923 28.2626 142.107 28.9615 141.059 29.4275C140.011 29.8934 138.729 30.1263 137.332 30.1263C135.934 30.1263 134.653 29.8934 133.371 29.311C132.206 28.7286 131.158 28.0297 130.459 27.2143L133.255 24.3023C133.721 24.7682 134.187 25.1176 134.769 25.3506C135.468 25.7 136.05 25.8165 136.749 25.8165C137.332 25.8165 137.681 25.7 138.03 25.5836C138.38 25.4671 138.613 25.2341 138.846 25.0012C138.962 24.7682 139.079 24.5352 139.079 24.1858C139.079 23.8363 138.962 23.6034 138.846 23.3704C138.613 23.1375 138.38 22.9045 138.03 22.788C137.681 22.555 137.332 22.555 136.749 22.555H135.002V18.5947H136.749C137.215 18.5947 137.565 18.4782 137.798 18.3617C138.147 18.2452 138.38 18.1288 138.496 17.8958C138.613 17.6628 138.729 17.4299 138.729 17.0804C138.729 16.731 138.613 16.498 138.496 16.2651C138.38 16.0321 138.147 15.9156 137.798 15.6826C137.565 15.5662 137.215 15.5662 136.749 15.5662C136.283 15.5662 135.701 15.6826 135.118 15.9156C134.653 16.265 134.187 16.498 133.837 16.9639L131.042 14.0519C131.74 13.2365 132.672 12.6541 133.837 12.1882C134.885 11.6058 136.05 11.3728 137.448 11.3728C138.729 11.3728 139.778 11.6058 140.826 12.0717ZM158.065 12.5376C159.347 13.353 160.278 14.4013 160.977 15.7991C161.676 17.3134 162.026 18.9441 162.026 20.8078C162.026 22.555 161.676 24.1858 160.977 25.7C160.278 27.0978 159.347 28.1462 158.065 28.9615C156.9 29.7769 155.619 30.1263 154.221 30.1263C152.824 30.1263 151.426 29.7769 150.261 28.9615C149.096 28.1462 148.164 27.0978 147.349 25.7C146.65 24.1858 146.301 22.555 146.301 20.8078C146.301 18.9441 146.65 17.3134 147.349 15.7991C148.164 14.4013 149.096 13.353 150.261 12.5376C151.426 11.7223 152.824 11.3728 154.221 11.3728C155.619 11.3728 156.9 11.7223 158.065 12.5376ZM168.782 12.3047C169.248 12.7706 169.364 13.2365 169.364 13.9354C169.364 14.5178 169.248 15.1002 168.782 15.5662C168.316 15.9156 167.733 16.1486 167.034 16.1486C166.335 16.1486 165.753 15.9156 165.287 15.5662C164.821 15.1002 164.588 14.5178 164.588 13.9354C164.588 13.2365 164.821 12.7706 165.287 12.3047C165.753 11.8388 166.335 11.6058 167.034 11.6058C167.733 11.6058 168.316 11.8388 168.782 12.3047ZM169.131 29.6604H164.821V17.4299H169.131V29.6604ZM176.819 29.6604H172.509V11.8388H176.819V29.6604ZM184.856 2.63672C184.856 2.63672 144.437 6.59709 118.462 5.66524V35.4845C118.462 35.4845 132.905 36.0669 136.633 35.4845V42.7063C136.633 42.7063 166.918 42.7063 195.689 38.8625L194.058 7.7619L186.254 9.85857L184.856 2.63672Z" fill="#0057C2"/>
</svg>
