<svg width="28" height="28" viewBox="0 0 28 28" fill="none" xmlns="http://www.w3.org/2000/svg">
<path fill-rule="evenodd" clip-rule="evenodd" d="M20.1112 0H7.86284C2.10195 0 0 2.1039 0 7.87013V20.1299C0 25.8961 2.10195 28 7.86284 28H20.1112C25.8721 28 28 25.8961 28 20.1299V7.87013C28 2.1039 25.8721 0 20.1112 0ZM5.55355 14H6.3061V17.6623H5.55355V16.1818H3.86681V17.6623H3.11426V14H3.86681V15.4805H5.55355V14ZM9.73149 16.1039C9.73149 16.7013 9.44605 17.013 8.9011 17.013C8.35615 17.013 8.0707 16.6753 8.0707 16.0779V14H7.31815V16.1039C7.31815 17.1428 7.88905 17.7143 8.87515 17.7143C9.8872 17.7143 10.4581 17.1169 10.4581 16.0519V13.974H9.70555V16.1039H9.73149ZM18.295 16.5195L17.4646 14H16.8677L16.0373 16.5195L15.2329 14H14.4544L15.7259 17.6623H16.3487L17.1791 15.2467L18.0095 17.6623H18.6323L19.9039 14H19.1254L18.295 16.5195ZM21.2273 16.1039H22.5767V15.4285H21.2273V14.6753H23.1995V14H20.4748V17.6623H23.2255V16.987H21.2014V16.1039H21.2273ZM24.1337 17.6623H24.8603V14H24.1337V17.6623ZM11.9372 16.9091L11.5999 17.6623H10.8473L12.4562 14H13.105L14.7139 17.6623H13.9354L13.598 16.9091H11.9372ZM12.2227 16.2337H13.3385L12.7676 14.935L12.2227 16.2337ZM9.31592 4.67529C9.31592 7.24672 11.4179 9.35062 13.9869 9.35062C16.5559 9.35062 18.6579 7.24672 18.606 4.67529H17.9572C17.9572 6.88309 16.1667 8.67529 13.961 8.67529C11.7552 8.67529 9.96467 6.88309 9.96467 4.67529H9.31592Z" fill="white"/>
</svg>
