<svg width="22" height="22" viewBox="0 0 22 22" fill="none" xmlns="http://www.w3.org/2000/svg">
<path d="M11.0065 0C6.74303 0 3.04331 2.44095 1.22262 5.99951C1.16202 6.10711 1.12377 6.22585 1.11017 6.3486C1.09657 6.47135 1.10789 6.59559 1.14347 6.71385C1.17905 6.83212 1.23814 6.94197 1.3172 7.03681C1.39627 7.13166 1.49366 7.20954 1.60355 7.26579C1.71344 7.32203 1.83356 7.35548 1.95669 7.36412C2.07982 7.37276 2.20342 7.35642 2.32009 7.31608C2.43675 7.27574 2.54406 7.21222 2.63558 7.12935C2.7271 7.04648 2.80094 6.94596 2.85267 6.83382C4.37033 3.86755 7.44083 1.83333 11.0065 1.83333C16.0768 1.83333 20.1678 5.92668 20.1678 11C20.1678 16.0733 16.0768 20.1667 11.0065 20.1667C7.44083 20.1667 4.37033 18.1325 2.85267 15.1662C2.80094 15.054 2.7271 14.9535 2.63558 14.8706C2.54406 14.7878 2.43675 14.7243 2.32009 14.6839C2.20342 14.6436 2.07982 14.6272 1.95669 14.6359C1.83356 14.6445 1.71344 14.678 1.60355 14.7342C1.49366 14.7905 1.39627 14.8683 1.3172 14.9632C1.23814 15.058 1.17905 15.1679 1.14347 15.2861C1.10789 15.4044 1.09657 15.5286 1.11017 15.6514C1.12377 15.7742 1.16201 15.8929 1.22262 16.0005C3.04331 19.559 6.74303 22 11.0065 22C17.0671 22 22 17.0642 22 11C22 4.93582 17.0671 0 11.0065 0ZM10.0815 6.40771C9.89921 6.40776 9.72111 6.46219 9.56995 6.56405C9.41878 6.6659 9.3014 6.81055 9.23282 6.9795C9.16424 7.14846 9.14758 7.33403 9.18496 7.51251C9.22234 7.69099 9.31207 7.85426 9.44267 7.98145L11.5433 10.0833H0.929171C0.807774 10.0816 0.687246 10.1041 0.574592 10.1494C0.461938 10.1946 0.359404 10.2619 0.27295 10.3472C0.186496 10.4325 0.117845 10.5341 0.0709874 10.6462C0.0241298 10.7582 0 10.8785 0 11C0 11.1215 0.0241298 11.2418 0.0709874 11.3538C0.117845 11.4659 0.186496 11.5675 0.27295 11.6528C0.359404 11.7381 0.461938 11.8054 0.574592 11.8506C0.687246 11.8959 0.807774 11.9184 0.929171 11.9167H11.5433L9.44267 14.0186C9.35475 14.103 9.28455 14.2042 9.23619 14.3161C9.18784 14.4281 9.16229 14.5486 9.16105 14.6705C9.15981 14.7925 9.1829 14.9135 9.22897 15.0264C9.27504 15.1393 9.34317 15.2419 9.42935 15.3281C9.51554 15.4143 9.61806 15.4825 9.73091 15.5286C9.84375 15.5747 9.96466 15.5978 10.0865 15.5966C10.2084 15.5953 10.3288 15.5698 10.4407 15.5214C10.5526 15.473 10.6537 15.4028 10.7381 15.3148L14.3221 11.7287C14.4343 11.643 14.5253 11.5326 14.5878 11.4059C14.6503 11.2793 14.6828 11.1399 14.6826 10.9987C14.6825 10.8574 14.6497 10.7181 14.5868 10.5916C14.524 10.4652 14.4328 10.3549 14.3203 10.2695L10.7381 6.68522C10.6528 6.59741 10.5507 6.52761 10.4379 6.47995C10.3251 6.43228 10.2039 6.40772 10.0815 6.40771Z" fill="#0056C1"/>
</svg>
